<svg width="321" height="302" viewbox = "0 0 321 302"  xmlns="http://www.w3.org/2000/svg">

<!--
<json>
{
    "svgwidth": 321,
    "svgheight": 302,
    "unit": 100,
    "x0": 683,
    "y0": 379,
    "x0rel": -1,
    "y0rel": -20,
    "glyph": "0225,",
    "table": [
        "0220:0336,0304,0350,0310,0362,0203,0335,0335,0335,0336,0203,0335,0335,0203,0363,0335,0335,0335,0304,0337,0333,0362,0203,0335,0350,0335,0336,0203,0335,0335,0203,0335,0335,0335,0337,0363,0304,0333,0362,0203,0335,0350,0335,0336,0203,0335,0335,0203,0363,0335,0335,0335,0337,0313,0304,0332,0332,0337,",
        "0221:0313,0304,0336,0324,0362,0203,0335,0203,0335,0350,0310,0335,0337,0203,0363,0335,0335,0335,0335,0320,0362,0203,0335,0336,0203,0335,0335,0335,0337,0203,0335,0336,0203,0363,0331,0335,0335,0335,0337,0324,0362,0203,0335,0335,0335,0336,0203,0335,0335,0203,0363,0335,0335,0335,0333,0334,0304,0313,0337,",
        "0222:0221,0221,0336,0362,0203,0335,0203,0335,0310,0350,0335,0337,0203,0363,0335,0335,0335,0335,0320,0362,0203,0335,0335,0335,0336,0203,0335,0335,0203,0363,0335,0335,0304,0333,0313,0337,0332,0332,0336,0332,0337,",
        "0223:0320,0304,0313,0220,0331,0336,0330,0337,0336,0222,0330,0330,0336,0330,0337,0222,0331,0331,0331,0333,0333,0333,0336,0336,0333,0337,0337,0337,0337,0321,0200,0336,0330,0332,0336,0331,0332,0336,0330,0336,0332,0337,0337,0337,",
        "0224:0304,0313,0336,0336,0334,0362,0203,0335,0203,0203,0334,0203,0335,0350,0310,0335,0337,0203,0203,0335,0335,0203,0203,0335,0335,0335,0336,0203,0304,0313,0334,0203,0203,0335,0203,0363,0335,0337,0337,0330,0313,0304,",
        "0225:0336,0332,0332,0223,0333,0333,0335,0224,0334,0331,0336,0330,0333,0337,0336,0330,0333,0337,0336,0330,0330,0332,0223,0337,0337,0331,0336,0336,0330,0223,0331,0331,0331,0331,0330,0223,0333,0331,0333,0337,0321,0337,0336,0331,0336,0330,0333,0337,0337,0362,0203,0203,0336,0203,0334,0203,0203,0203,0203,0203,0203,0334,0203,0203,0203,0203,0203,0334,0203,0203,0203,0203,0203,0203,0354,0334,0337,0337,",
        "0226:0321,0341,0320, ,",
        "0227:0333,0331,0337,0321,0200,0336,0332,0337,0320,0342,0336,0333,0330,0334,0337,0342,0335,0336,0332,",
        "0230:0312,0336,0330,0335,0337,0321,0306,0362,0203,0335,0335,0203,0203,0335,0335,0203,0203,0335,0335,0203,0354,0304,0334,0306,0335,0335,0350,0335,0320,0362,0203,0335,0335,0335,0335,0203,0335,0335,0335,0335,0203,0354,0334,0304,0312,0336,0331,0337,0313,",
        "0231:0331,0333,0334,0321,0337,0305,0311,0362,0203,0335,0350,0335,0337,0203,0335,0335,0335,0335,0203,0354,0335,0335,0335,0335,0320,0336,0201,0335,0335,0335,0335,0336,0201,0334,0334,0334,0334,0201,0335,0335,0335,0335,0336,0201,0334,0334,0334,0334,0201,0335,0335,0335,0335,0336,0201,0334,0334,0334,0334,0201,0331,0335,0335,0335,0335,0331,0334,0334,0334,0334,0337,0331,0335,0335,0335,0335,0337,0336,0331,0334,0334,0334,0334,0337,0331,0335,0335,0335,0335,0331,0334,0334,0334,0334,0337,0331,0335,0334,0334,0313,0336,0330,0304,0335,0337,0336,0330,",
        "0232:0331,0333,0334,0305,0337,0311,0335,0337,0321,0362,0203,0335,0335,0336,0203,0335,0203,0354,0335,0335,0320,0350,0335,0330,0334,0334,0334,0336,0201,0335,0335,0335,0336,0201,0334,0334,0336,0334,0201,0335,0335,0335,0336,0201,0334,0334,0334,0336,0201,0331,0335,0335,0335,0337,0331,0335,0335,0337,0330,0335,0335,0335,0337,0330,0334,0334,0334,0337,0330,0335,0335,0335,0337,0330,0335,0335,0313,0336,0304,0335,0332,0330,",
        "0233:0321,0350,0310,0362,0203,0203,0335,0335,0335,0337,0203,0203,0335,0335,0335,0336,0203,0203,0354,0335,0335,0335,0320,0337,0201,0334,0334,0334,0336,0201,0335,0335,0335,0336,0201,0334,0334,0334,0336,0201,0335,0335,0335,0336,0201,0334,0334,0334,0336,0201,0335,0335,0335,0336,0201,0331,0337,0333,0337,0331,0337,0333,0337,0331,0337,0333,0337,0331,0334,0336,0304,0313,",
        "0234:0320,0304,0313,0332,0332,0335,0321,0337,0362,0203,0334,0312,0336,0203,0306,0334,0334,0313,0337,0203,0354,0350,0335,0336,0312,0337,0331,0335,0335,0336,0313,0336,0312,0337,0320,0201,0334,0334,0334,0334,0335,0334,0201,0335,0335,0336,0335,0201,0334,0334,0334,0336,0201,0335,0335,0335,0336,0201,0331,0335,0335,0337,0333,0334,0334,0337,0331,0335,0335,0335,0337,0330,0334,0334,0331,0313,0337,0313,0334,0334,0336,0304,0304,0313,0335,",
        "0235:0332,0321,0337,0362,0203,0335,0311,0337,0203,0335,0336,0203,0335,0337,0203,0354,0335,0336,0333,0200,0350,0334,0343,0335,0330,0336,0331,0335,0343,0335,0342,0334,0335,0330,0336,0331,0335,0343,0335,0342,0330,0336,0331,0335,0343,0335,0342,0330,0336,0331,0335,0343,0335,0342,0330,0336,0331,0335,0343,0335,0342,0334,0334,0330,0337,0331,0335,0335,0331,0334,0334,0337,0331,0335,0335,0337,0337,0337,0331,0334,0334,0304,0313,0336,0333,0320,",
        "0236:0335,0331,0337,0321,0305,0362,0203,0335,0335,0203,0335,0335,0203,0335,0335,0203,0335,0335,0203,0354,0335,0350,0335,0311,0336,0362,0203,0335,0335,0203,0335,0335,0203,0335,0335,0203,0335,0335,0203,0354,0335,0335,0335,0337,0313,0336,0330,0304,0334,0320,",
        "0237:0330,0306,0335,0335,0321,0362,0203,0335,0203,0335,0203,0335,0203,0335,0203,0335,0203,0335,0354,0330,0335,0335,0350,0335,0312,0337,0362,0203,0334,0334,0334,0334,0203,0334,0334,0334,0334,0203,0354,0334,0336,0331,0334,0337,0362,0203,0334,0334,0334,0334,0203,0334,0334,0334,0334,0203,0354,0334,0336,0331,0334,0334,0330,0304,0313,0320,",
        "0240:0331,0321,0334,0336,0362,0203,0335,0337,0203,0203,0334,0336,0203,0335,0350,0310,0335,0337,0203,0203,0335,0335,0203,0203,0335,0335,0335,0336,0203,0313,0304,0334,0203,0203,0203,0203,0335,0203,0354,0335,0337,0330,0320,",
        "0241:0306,0362,0203,0335,0335,0203,0335,0335,0203,0363,0335,0335,0304,",
        "0242:0241,0333,0336,0333,0337,0241,0336,0333,0337,0333,0241,0333,0336,0333,0337,",
        "0243:0313,0304,0320,0350,0310,0335,0337,0362,0203,0335,0336,0203,0335,0335,0335,0337,0203,0335,0336,0203,0363,0335,0335,0324,0362,0203,0335,0335,0203,0335,0335,0335,0337,0203,0363,0335,0336,0331,0335,0335,0335,0337,0362,0203,0335,0335,0335,0336,0203,0335,0335,0203,0363,0320,0331,0335,0335,0304,0313,",
        "0244:0243,0243,0243,0243,",
        "0245:0321,0337,0201,0320,0336,0334,0336,0336,0306,0336,0362,0203,0335,0335,0337,0203,0335,0335,0203,0335,0335,0336,0203,0363,0304,0335,0337,0337,0337,0337,0331,0336,",
        "0246:0320,0335,0306,0350,0334,0330,0321,0337,0366,0336,0331,0335,0335,0330,0337,0336,0336,0336,0336,0336,0330,0337,0337,0337,0337,0337,0367,0336,0336,0336,0336,0336,0331,0335,0337,0320,0337,0362,0203,0334,0334,0334,0334,0203,0334,0334,0334,0334,0203,0363,0335,0337,0337,0330,0335,0335,0304,",
        "0247:0336,0336,0336,0347,0337,0337,0337,",
        "0250:0335,0337,0331,0337,0223,",
        "01220:0333,0200,0336,0332,0330,0220,0333,0331,0337,",
        "01221:0333,0200,0336,0332,0336,0330,0337,0221,0333,0331,0331,0336,0330,0337,0337,0336,0330,0332,0337,0320,",
        "01222:0333,0200,0336,0332,0330,0332,0222,0336,0333,0333,0333,0333,0331,0331,0337,0337,",
        "01223:0333,0200,0336,0330,0332,0336,0333,0332,0223,0336,0333,0331,0333,0333,0331,0331,0333,0320,0331,0337,0337,0337,",
        "01224:0333,0200,0336,0332,0337,0224,0333,0331,0336,0332,0337,",
        "01225:0333,0200,0336,0330,0332,0336,0332,0336,0333,0337,0225,0333,0331,0320,0333,0331,0331,0331,0331,0331,0337,0337,0337,0337,",
        "01226:0333,0200,0336,0330,0332,0226,0333,0331,0337,",
        "01227:0333,0200,0336,0330,0332,0210,0227,0211,0331,0333,0337,",
        "01230:0333,0200,0336,0330,0332,0230,0331,0304,0333,0337,",
        "01231:0333,0200,0332,0336,0330,0333,0231,0333,0331,0337,",
        "01232:0333,0200,0336,0332,0330,0332,0232,0333,0331,0333,0337,",
        "01233:0333,0200,0336,0332,0337,0336,0332,0336,0336,0333,0330,0337,0337,0210,0210,0233,0211,0211,0313,0336,0336,0332,0332,0333,0331,0337,0337,0337,0333,",
        "01234:0333,0200,0336,0234,0337,",
        "01235:0333,0200,0336,0332,0336,0330,0332,0235,0333,0333,0333,0336,0336,0331,0331,0331,0331,0337,0337,0337,0337,",
        "01236:0333,0200,0336,0330,0330,0332,0336,0331,0337,0236,0333,0331,0331,0336,0330,0337,0337,",
        "01237:0333,0200,0336,0330,0332,0237,0333,0331,0337,",
        "01240:0333,0200,0336,0336,0332,0332,0240,0333,0333,0337,0337,",
        "01241:0333,0200,0336,0332,0241,0333,0337,",
        "01242:0333,0200,0336,0332,0332,0336,0330,0330,0242,0336,0331,0331,0331,0331,0332,0337,0337,0337,",
        "01243:0333,0200,0336,0332,0332,0243,0337,",
        "01244:0333,0200,0332,0336,0330,0336,0336,0243,0243,0243,0243,0331,0331,0331,0331,0337,0337,0337,",
        "01245:0333,0200,0336,0332,0336,0331,0337,0245,0333,0336,0330,0337,0337,",
        "01246:0333,0200,0330,0332,0336,0331,0336,0332,0337,0246,0333,0333,0336,0333,0331,0331,0337,0337,",
        "01247:0333,0200,0336,0330,0332,0337,0247,0336,0333,0331,0337,"
    ]
}
</json>
-->
	<path d = "M60 131 L60 106 L72 119 L60 131 Z" stroke = "black" stroke-width = "1" fill = "black" />	<path d = "M85 131 L85 106 L97 119 L85 131 Z" stroke = "black" stroke-width = "1" fill = "black" />	<path d = "M110 131 L110 106 L122 119 L110 131 Z" stroke = "black" stroke-width = "1" fill = "black" />	<path d = "M59 156 L59 143 L72 143 L59 156 Z" stroke = "yellow" stroke-width = "1" fill = "yellow" />	<path d = "M59 156 L72 143 L84 144 L72 156 L59 156 Z" stroke = "black" stroke-width = "1" fill = "black" />	<path d = "M72 156 L85 144 L84 156 L72 156 Z" stroke = "yellow" stroke-width = "1" fill = "yellow" />	<path d = "M84 156 L84 143 L97 144 L84 156 Z" stroke = "yellow" stroke-width = "1" fill = "yellow" />	<path d = "M84 156 L97 143 L109 143 L97 156 L84 156 Z" stroke = "black" stroke-width = "1" fill = "black" />	<path d = "M97 156 L109 143 L110 156 L97 156 Z" stroke = "yellow" stroke-width = "1" fill = "yellow" />	<path d = "M110 156 L109 143 L122 143 L110 156 Z" stroke = "yellow" stroke-width = "1" fill = "yellow" />	<path d = "M110 156 L122 143 L122 156 L110 156 Z" stroke = "black" stroke-width = "1" fill = "black" />	<path d = "M59 94 L59 81 L72 81 L59 94 Z" stroke = "yellow" stroke-width = "1" fill = "yellow" />	<path d = "M59 94 L72 81 L84 81 L72 94 L59 94 Z" stroke = "black" stroke-width = "1" fill = "black" />	<path d = "M72 94 L84 81 L84 94 L72 94 Z" stroke = "yellow" stroke-width = "1" fill = "yellow" />	<path d = "M84 94 L84 81 L97 81 L84 94 Z" stroke = "yellow" stroke-width = "1" fill = "yellow" />	<path d = "M84 94 L97 81 L109 81 L97 93 L84 94 Z" stroke = "black" stroke-width = "1" fill = "black" />	<path d = "M97 93 L109 81 L109 93 L97 93 Z" stroke = "yellow" stroke-width = "1" fill = "yellow" />	<path d = "M109 93 L109 81 L122 81 L109 93 Z" stroke = "yellow" stroke-width = "1" fill = "yellow" />	<path d = "M109 93 L122 81 L122 93 L109 93 Z" stroke = "black" stroke-width = "1" fill = "black" />	<path d = "M141 168 L141 68 L41 69 L41 169 L141 168 Z" stroke = "black" stroke-width = "6" fill = "none" />	<path d = "M160 131 L160 118 L172 118 L185 118 L184 106 L197 118 L210 131 L197 143 L185 156 L185 143 L172 143 L160 143 L160 131 Z" stroke = "black" stroke-width = "6" fill = "black" />	<path d = "M234 81 L234 68 L241 75 L234 81 Z" stroke = "black" stroke-width = "1" fill = "black" />	<path d = "M247 81 L247 68 L253 75 L247 81 Z" stroke = "black" stroke-width = "1" fill = "black" />	<path d = "M259 81 L259 68 L266 75 L259 81 Z" stroke = "black" stroke-width = "1" fill = "black" />	<path d = "M234 93 L234 87 L241 87 L234 93 Z" stroke = "yellow" stroke-width = "1" fill = "yellow" />	<path d = "M234 93 L241 87 L247 87 L241 93 L234 93 Z" stroke = "black" stroke-width = "1" fill = "black" />	<path d = "M241 93 L247 87 L247 93 L241 93 Z" stroke = "yellow" stroke-width = "1" fill = "yellow" />	<path d = "M247 93 L247 87 L253 87 L247 93 Z" stroke = "yellow" stroke-width = "1" fill = "yellow" />	<path d = "M247 93 L253 87 L259 87 L253 93 L247 93 Z" stroke = "black" stroke-width = "1" fill = "black" />	<path d = "M253 93 L259 87 L259 93 L253 93 Z" stroke = "yellow" stroke-width = "1" fill = "yellow" />	<path d = "M259 93 L259 87 L266 87 L259 93 Z" stroke = "yellow" stroke-width = "1" fill = "yellow" />	<path d = "M259 93 L266 87 L266 93 L259 93 Z" stroke = "black" stroke-width = "1" fill = "black" />	<path d = "M234 62 L234 56 L241 56 L234 62 Z" stroke = "yellow" stroke-width = "1" fill = "yellow" />	<path d = "M234 62 L241 56 L247 56 L241 62 L234 62 Z" stroke = "black" stroke-width = "1" fill = "black" />	<path d = "M241 62 L247 56 L247 62 L241 62 Z" stroke = "yellow" stroke-width = "1" fill = "yellow" />	<path d = "M247 62 L247 56 L253 56 L247 62 Z" stroke = "yellow" stroke-width = "1" fill = "yellow" />	<path d = "M247 62 L253 56 L259 56 L253 62 L247 62 Z" stroke = "black" stroke-width = "1" fill = "black" />	<path d = "M253 62 L259 56 L259 62 L253 62 Z" stroke = "yellow" stroke-width = "1" fill = "yellow" />	<path d = "M259 62 L259 56 L266 56 L259 62 Z" stroke = "yellow" stroke-width = "1" fill = "yellow" />	<path d = "M259 62 L266 56 L266 62 L259 62 Z" stroke = "black" stroke-width = "1" fill = "black" />	<path d = "M275 100 L275 50 L225 50 L225 100 L275 100 Z" stroke = "black" stroke-width = "6" fill = "none" />	<path d = "M235 156 L235 143 L241 150 L235 156 Z" stroke = "black" stroke-width = "1" fill = "black" />	<path d = "M247 156 L247 143 L253 150 L247 156 Z" stroke = "black" stroke-width = "1" fill = "black" />	<path d = "M260 156 L260 143 L266 150 L260 156 Z" stroke = "black" stroke-width = "1" fill = "black" />	<path d = "M235 168 L235 162 L241 162 L235 168 Z" stroke = "yellow" stroke-width = "1" fill = "yellow" />	<path d = "M235 168 L241 162 L247 162 L241 168 L235 168 Z" stroke = "black" stroke-width = "1" fill = "black" />	<path d = "M241 168 L247 162 L247 168 L241 168 Z" stroke = "yellow" stroke-width = "1" fill = "yellow" />	<path d = "M247 168 L247 162 L253 162 L247 168 Z" stroke = "yellow" stroke-width = "1" fill = "yellow" />	<path d = "M247 168 L253 162 L260 162 L253 168 L247 168 Z" stroke = "black" stroke-width = "1" fill = "black" />	<path d = "M253 168 L260 162 L260 168 L253 168 Z" stroke = "yellow" stroke-width = "1" fill = "yellow" />	<path d = "M260 168 L260 162 L266 162 L260 168 Z" stroke = "yellow" stroke-width = "1" fill = "yellow" />	<path d = "M260 168 L266 162 L266 168 L260 168 Z" stroke = "black" stroke-width = "1" fill = "black" />	<path d = "M235 137 L235 131 L241 131 L235 137 Z" stroke = "yellow" stroke-width = "1" fill = "yellow" />	<path d = "M235 137 L241 131 L247 131 L241 137 L235 137 Z" stroke = "black" stroke-width = "1" fill = "black" />	<path d = "M241 137 L247 131 L247 137 L241 137 Z" stroke = "yellow" stroke-width = "1" fill = "yellow" />	<path d = "M247 137 L247 131 L253 131 L247 137 Z" stroke = "yellow" stroke-width = "1" fill = "yellow" />	<path d = "M247 137 L253 131 L260 131 L253 137 L247 137 Z" stroke = "black" stroke-width = "1" fill = "black" />	<path d = "M253 137 L260 131 L260 137 L253 137 Z" stroke = "yellow" stroke-width = "1" fill = "yellow" />	<path d = "M260 137 L260 131 L266 131 L260 137 Z" stroke = "yellow" stroke-width = "1" fill = "yellow" />	<path d = "M260 137 L266 131 L266 137 L260 137 Z" stroke = "black" stroke-width = "1" fill = "black" />	<path d = "M275 175 L275 125 L225 125 L225 175 L275 175 Z" stroke = "black" stroke-width = "6" fill = "none" />	<path d = "M234 231 L234 218 L241 225 L234 231 Z" stroke = "black" stroke-width = "1" fill = "black" />	<path d = "M247 231 L247 218 L253 225 L247 231 Z" stroke = "black" stroke-width = "1" fill = "black" />	<path d = "M259 231 L259 218 L266 225 L259 231 Z" stroke = "black" stroke-width = "1" fill = "black" />	<path d = "M234 243 L234 237 L241 237 L234 243 Z" stroke = "yellow" stroke-width = "1" fill = "yellow" />	<path d = "M234 243 L241 237 L247 237 L241 243 L234 243 Z" stroke = "black" stroke-width = "1" fill = "black" />	<path d = "M241 243 L247 237 L247 243 L241 243 Z" stroke = "yellow" stroke-width = "1" fill = "yellow" />	<path d = "M247 243 L247 237 L253 237 L247 243 Z" stroke = "yellow" stroke-width = "1" fill = "yellow" />	<path d = "M247 243 L253 237 L259 237 L253 243 L247 243 Z" stroke = "black" stroke-width = "1" fill = "black" />	<path d = "M253 243 L259 237 L259 243 L253 243 Z" stroke = "yellow" stroke-width = "1" fill = "yellow" />	<path d = "M259 243 L259 237 L266 237 L259 243 Z" stroke = "yellow" stroke-width = "1" fill = "yellow" />	<path d = "M259 243 L266 237 L266 244 L259 243 Z" stroke = "black" stroke-width = "1" fill = "black" />	<path d = "M234 212 L234 206 L241 206 L234 212 Z" stroke = "yellow" stroke-width = "1" fill = "yellow" />	<path d = "M234 212 L241 206 L247 206 L241 212 L234 212 Z" stroke = "black" stroke-width = "1" fill = "black" />	<path d = "M241 212 L247 206 L247 212 L241 212 Z" stroke = "yellow" stroke-width = "1" fill = "yellow" />	<path d = "M247 212 L247 206 L253 206 L247 212 Z" stroke = "yellow" stroke-width = "1" fill = "yellow" />	<path d = "M247 212 L253 206 L259 206 L253 212 L247 212 Z" stroke = "black" stroke-width = "1" fill = "black" />	<path d = "M253 212 L259 206 L259 212 L253 212 Z" stroke = "yellow" stroke-width = "1" fill = "yellow" />	<path d = "M259 212 L259 206 L266 206 L259 212 Z" stroke = "yellow" stroke-width = "1" fill = "yellow" />	<path d = "M259 212 L266 206 L266 212 L259 212 Z" stroke = "black" stroke-width = "1" fill = "black" />	<path d = "M275 250 L275 200 L225 200 L225 250 L275 250 Z" stroke = "black" stroke-width = "6" fill = "none" />	<path d = "M309 281 L310 181 L310 81 L310 31 L260 31 L210 31 L160 31 L110 31 L60 31 L10 31 L10 81 L10 131 L10 181 L9 231 L9 281 L59 281 L109 281 L159 281 L209 281 L259 281 L309 281 Z" stroke = "black" stroke-width = "6" fill = "none" /></svg>