<svg width="500" height="500" viewbox="0 0 500 500" xmlns="http://www.w3.org/2000/svg">

<!--
<topfunctions>



function YofX(){
    X = currentjson.plotparams.g*(x - currentjson.plotparams.x0);

    Y = Math.exp(-X/A)*(Math.sin(X));

    y = currentjson.plotparams.y0 - currentjson.plotparams.G*(Y);
}





function plotfunction(){
    
    /*plot one function:*/
    currentStroke = "red";
    currentLineWidth = 4;
    ctx.strokeStyle = currentStroke;
    ctx.lineWidth = currentLineWidth;
    ctx.beginPath();	
    x = 0;
    intx = x;
    YofX();
    currentSVG += "	<path d = \"M";
    currentSVG += Math.round(x).toString() + " ";
    currentSVG += Math.round(y).toString() + " ";
    for(x = 1;x < currentjson.plotparams.plotwidth;x++){
        ctx.moveTo(x-1,y);
        YofX();
        ctx.lineTo(x,y);
        currentSVG += "L" + x + " " + y + " ";
    }
    ctx.stroke();
    currentSVG += "\""+ " stroke = \"" + currentStroke + "\" stroke-width = \"" + currentLineWidth.toString() + "\" fill = \"" + "none" + "\" "+"/>";
    /*finish plot one function*/
    
    

}































</topfunctions>
-->

<!--
<currentjson>
{
    "constants": {},
    "YofXstring": "Y =  (1/Math.PI)*0.5/(X*X + 0.25);",
    "style": {
        "linewidth": 4,
        "color": "blue",
        "fill": "none"
    },
    "plotparams": {
        "G": 103.42365531743322,
        "g": 0.15083501404857097,
        "duration": 450.78888054094654,
        "plotwidth": 500,
        "plotheight": 500,
        "x0": 36,
        "y0": 255
    },
    "funcparams": {},
    "image": {
        "url": "",
        "xoverw": 0.038011695906432746,
        "yoverw": -0.08771929824561403,
        "woverw": 0.8536631795472632,
        "angle": "0"
    },
    "A": 13.676183278839833,
    "B": 1
}
</currentjson>
-->

<!--
<equation>
# Equations

$x$, $x_0$, $y$ and $y_0$ are all in pixels. x varies from 0 to the width in pixels of the plot.  Y and X are in the units of the system being studied.   

$$X = g(x - x_0)$$
$$Y = \sin{(X)}$$
$$y = y_0 - GY$$ 
</equation>
-->
	<path d="M0 139 L1 126.64787368328845 L2 117.35543673519581 L3 111.37365128563292 L4 108.76535504753625 L5 109.51584369282048 L6 113.53489456665326 L7 120.66045140474984 L8 130.66385061785826 L9 143.25643750572658 L10 158.09739268737377 L11 174.80256562933073 L12 192.95409384526005 L13 212.11057343119256 L14 231.81753926422752 L15 251.61801147300193 L16 271.06286860183235 L17 289.7208170303421 L18 307.1877403540365 L19 323.0952311501603 L20 337.11813032478756 L21 348.98092545887005 L22 358.4628885755689 L23 365.4018648229936 L24 369.6966559587967 L25 371.3079754757169 L26 370.2579849638468 L27 366.6284531307882 L28 360.5576090966531 L29 352.23578950084186 L30 341.9000040208989 L31 329.82756560693525 L32 316.32894966136405 L33 301.74006022067283 L34 286.414090700867 L35 270.7131718307544 L36 255 L37 239.62963547555643 L38 224.94165197133373 L39 211.25280716327742 L40 198.8503882795047 L41 187.98636828982592 L42 178.87248695951078 L43 171.67634765647395 L44 166.5185958831306 L45 163.47121964028491 L46 162.5569855251903 L47 163.7499985185018 L48 166.97734830548222 L49 172.1217812541894 L50 179.02531534285401 L51 187.49369584189242 L52 197.30157280185117 L53 208.1982676957365 L54 219.91398615546692 L55 232.1663267907618 L56 244.66693266617335 L57 257.12813213803344 L58 269.2694193377719 L59 280.8236314749754 L60 291.5426900951492 L61 301.20278617141474 L62 309.60890408785525 L63 316.5985967890889 L64 322.04494319268144 L65 325.85863892820635 L66 327.989192103286 L67 328.4252166222431 L68 327.1938361227184 L69 324.3592313922197 L70 320.02038274929134 L71 314.3080759279291 L72 307.3812551382014 L73 299.4228198909042 L74 290.6349726263013 L75 281.23423199430243 L76 271.44623167722256 L77 261.5004268729632 L78 251.62482997722748 L79 242.04089369253705 L80 232.95865388369188 L81 224.57223618398845 L82 217.0558198742446 L83 210.56014019143475 L84 205.2095962957956 L85 201.10001698319581 L86 198.29712024175836 L87 196.83568629762826 L88 196.71944725608418 L89 197.92168019618185 L90 200.38647498031267 L91 204.03063343242678 L92 208.74614322845107 L93 214.40315810186397 L94 220.85340602731733 L95 227.93393909078318 L96 235.4711329222324 L97 243.2848399417253 L98 251.19259928570594 L99 259.0138071196028 L100 266.57375403809044 L101 273.70744129089445 L102 280.2630944915685 L103 286.10530207192113 L104 291.1177158046403 L105 295.2052619722781 L106 298.2958239318853 L107 300.34136961643395 L108 301.3185106243655 L109 301.22849267418474 L110 300.0966300452859 L111 297.97120890526514 L112 294.921895872927 L113 291.0376985446248 L114 286.42453380850884 L115 281.20246740924387 L116 275.50269426416713 L117 269.46433336924815 L118 263.231113708749 L119 256.9480283764612 L120 250.75803314974635 L121 244.7988630905703 L122 239.2000364776177 L123 234.08010963178236 L124 229.54423914561636 L125 225.68209985347545 L126 222.5661977921716 L127 220.25060762702307 L128 218.77015379100777 L129 218.14004414605952 L130 218.35595456571664 L131 219.3945526917507 L132 221.2144394574369 L133 223.75747800426709 L134 226.9504715344617 L135 230.7071446019101 L136 234.93037648532925 L137 239.51463071599653 L138 244.34852162352212 L139 249.3174569595057 L140 254.30629527063866 L141 259.20195769775603 L142 263.89593622242444 L143 268.28664398568793 L144 272.28155805578234 L145 275.7991107905991 L146 278.77029257399306 L147 281.139936034043 L148 282.8676596954418 L149 283.9284571889466 L150 284.3129264466585 L151 284.0271415623231 L152 283.09217800578153 L153 281.54330947453053 L154 279.4289016806967 L155 276.8090346628039 L156 273.75389065226994 L157 270.34194901032083 L158 266.658033201505 L159 262.79125712989486 L160 258.83291940389546 L161 254.87439421177706 L162 251.0050665044983 L163 247.31035714138363 L164 243.86988062687004 L165 240.7557741427189 L166 238.0312318679554 L167 235.74927320194257 L168 233.95176760033183 L169 232.6687324440345 L170 231.91791383822502 L171 231.7046536340956 L172 232.02203943152793 L173 232.85132800205196 L174 234.1626266063944 L175 235.91581119654884 L176 238.0616556019716 L177 240.5431416006848 L178 243.29691634846765 L179 246.25486104351032 L180 249.3457329803528 L181 252.49684231552348 L182 255.63572492733684 L183 258.6917736830028 L184 261.5977921875327 L185 264.291437623007 L186 266.716522519522 L187 268.82414914232027 L188 270.5736545331375 L189 271.93334899823526 L190 272.88103587483374 L191 273.40430561171706 L192 273.5006024475553 L193 273.17706714252506 L194 272.4501641999903 L195 271.3451066970142 L196 269.89509612612466 L197 268.1403984480163 L198 266.12728079061793 L199 263.9068358433676 L200 261.53372294119396 L201 259.0648560812309 L202 256.5580696537209 L203 254.07079250021238 L204 251.65876005626103 L205 249.37479282672217 L206 247.26766732769914 L207 245.381102971222 L208 243.75288523865467 L209 242.41414196763955 L210 241.38878575312796 L211 240.69313142867264 L212 240.3356934453506 L213 240.31716379861916 L214 240.63056706256708 L215 241.26158516711786 L216 242.18904088172488 L217 243.3855256263901 L218 244.8181542857263 L219 246.44942721209534 L220 248.23817761586903 L221 250.1405810885195 L222 252.11120310865525 L223 254.10406005035784 L224 256.0736694423844 L225 257.97606599859176 L226 259.7697612250464 L227 261.4166261674941 L228 262.8826790441512 L229 264.1387620546701 L230 265.16109450117665 L231 265.93169243072026 L232 266.4386482359329 L233 266.6762669559301 L234 266.64505932617794 L235 266.35159485949947 L236 265.8082213291918 L237 265.0326599027852 L238 264.0474877809281 L239 262.8795224773178 L240 261.55912378808034 L241 260.1194310073986 L242 258.5955540252539 L243 257.02373757789064 L244 255.4405181073854 L245 253.88189242911386 L246 252.3825167204424 L247 250.9749532554416 L248 249.68898085219564 L249 248.5509832123587 L250 247.58342726450283 L251 246.80444132634395 L252 246.22750043295812 L253 245.8612235980735 L254 245.7092851441495 L255 245.77043961476198 L256 246.0386572288151 L257 246.50336440647172 L258 247.14978164358385 L259 247.95934898183492 L260 248.91022755672435 L261 249.97786423901908 L262 251.1356052439613 L263 252.35534378503857 L264 253.6081864059896 L265 254.86512253821917 L266 256.0976820950934 L267 257.27856651607016 L268 258.3822395913397 L269 259.38546560400204 L270 260.2677837882362 L271 261.0119097798817 L272 261.60405658771583 L273 262.0341695938933 L274 262.2960721529816 L275 262.38752045249316 L276 262.31016837580324 L277 262.0694451242614 L278 261.6743502650041 L279 261.1371726336373 L280 260.47314110000457 L281 259.7000165690295 L282 258.8376357110307 L283 257.9074177768696 L284 256.93184643908097 L285 255.9339389035125 L286 254.93671455629485 L287 253.96267515387478 L288 253.03330804124664 L289 252.1686231129848 L290 251.38673323603928 L291 250.70348665988013 L292 250.13215857974083 L293 249.68320752673978 L294 249.36410067112942 L295 249.17921047976196 L296 249.12978350447403 L297 249.2139804324795 L298 249.42698493976746 L299 249.76117738862362 L300 250.20636803262542 L301 250.75008316524892 L302 251.37789659599588 L303 252.0737979806397 L304 252.8205888849098 L305 253.60029703371106 L306 254.39459899566228 L307 255.18524157498788 L308 255.95445242421678 L309 256.68533084149107 L310 257.3622103608465 L311 257.970985563797 L312 258.4993965136041 L313 258.93726531442144 L314 259.2766804984379 L315 259.51212621589264 L316 259.6405545151501 L317 259.6614003223771 L318 259.57654003268885 L319 259.3901958779515 L320 259.10878941351916 L321 258.7407485421272 L322 258.29627344587266 L323 257.78706760786605 L324 257.226040758529 L325 256.62699106632095 L326 256.00427420163055 L327 255.3724670325316 L328 254.74603366304342 L329 254.13900130342356 L330 253.5646530766245 L331 253.03524432765192 L332 252.5617483286164 L333 252.1536364799775 L334 251.8186972183008 L335 251.56289687502755 L336 251.39028471274617 L337 251.3029433193831 L338 251.30098449082445 L339 251.38258970253594 L340 251.54409328358048 L341 251.78010548339958 L342 252.08367178227076 L343 252.446464057604 L344 252.85899859468563 L345 253.3108754336782 L346 253.79103318309762 L347 254.28801320882312 L348 254.79022702888707 L349 255.2862208065085 L350 255.7649310326014 L351 256.21592581683103 L352 256.62962665300046 L353 256.997506077434 L354 257.3122572832962 L355 257.5679324728916 L356 257.76004750607353 L357 257.8856512171727 L358 257.94335860612625 L359 257.93334794251575 L360 257.8573226351975 L361 257.71843949717794 L362 257.5212057586056 L363 257.271347835065 L364 256.97565543050024 L365 256.6418050329335 L366 256.2781672379053 L367 255.89360260296863 L368 255.49725089291982 L369 255.09831861865877 L370 254.70586970413748 L371 254.32862393975307 L372 253.9747676031004 L373 253.6517802576911 L374 253.36628128746148 L375 253.1238992016507 L376 252.92916616428667 L377 252.78543957942006 L378 252.69485191239573 L379 252.65828926415116 L380 252.67539855502758 L381 252.74462253172743 L382 252.86326119997867 L383 253.02755771927974 L384 253.23280628660063 L385 253.47347909337452 L386 253.74336907306227 L387 254.03574487164897 L388 254.3435142752798 L389 254.65939222044213 L390 254.97606949316074 L391 255.28637829305907 L392 255.58345099235743 L393 255.8608686535997 L394 256.1127961761058 L395 256.3341013113488 L396 256.5204552118926 L397 256.6684126464374 L398 256.7754705133845 L399 256.84010380517697 L400 256.86177870330914 L401 256.8409430072611 L402 256.7789946079598 L403 256.6782291966098 L404 256.54176884260414 L405 256.37347347055186 L406 256.17783760829167 L407 255.95987505859082 L408 255.7249943620288 L409 255.47886806393484 L410 255.22729887241977 L411 254.97608579738971 L412 254.7308932934487 L413 254.4971262958215 L414 254.27981384233706 L415 254.08350372189253 L416 253.9121702876047 L417 253.76913722895952 L418 253.6570167203581 L419 253.5776659627687 L420 253.5321617202873 L421 253.52079303396698 L422 253.54307188086838 L423 253.5977611461529 L424 253.68291889891765 L425 253.79595761636088 L426 253.933716692915 L427 254.09254630730697 L428 254.26840050609292 L429 254.45693720083085 L430 254.65362267019037 L431 254.8538381091291 L432 255.05298577466644 L433 255.24659234035482 L434 255.43040718666956 L435 255.6004935184673 L436 255.75331040862946 L437 255.88578411336 L438 255.99536728294046 L439 256.0800849950831 L440 256.1385668589644 L441 256.1700647689417 L442 256.17445622016027 L443 256.1522334261759 L444 256.1044787940618 L445 256.0328276083877 L446 255.93941904570062 L447 255.82683688015587 L448 255.69804144402931 L449 255.55629457018563 L450 255.40507936436086 L451 255.24801673154383 L452 255.08878061204888 L453 254.93101386934364 L454 254.77824671460903 L455 254.6338194546081 L456 254.50081121284586 L457 254.38197610313145 L458 254.27968813411616 L459 254.1958958983457 L460 254.13208785545365 L461 254.08926876225058 L462 254.06794753871495 L463 254.06813659437142 L464 254.08936238024071 L465 254.13068668320128 L466 254.1907379475881 L467 254.26775169804787 L468 254.3596189523715 L469 254.46394135686043 L470 254.57809165264453 L471 254.6992779913595 L472 254.82461056399865 L473 254.9511689880385 L474 255.076068914739 L475 255.19652636968328 L476 255.30991842324246 L477 255.4138389011364 L478 255.5061479853899 L479 255.5850147190196 L480 255.64895160953898 L481 255.6968407223349 L482 255.72795086040597 L483 255.7419456370203 L484 255.7388824577033 L485 255.71920263286788 L486 255.6837130378366 L487 255.63355991876702 L488 255.57019560727403 L489 255.49533905001894 L490 255.41093117941716 L491 255.31908624571253 L492 255.22204029741755 L493 255.122098035609 L494 255.02157927755087 L495 254.92276624698312 L496 254.8278528631916 L497 254.73889713027168 L498 254.65777763396866 L499 254.58615503875393 " stroke="red" stroke-width="4" fill="none"/></svg>