<svg width="300" height="300" viewbox="0 0 300 300" xmlns="http://www.w3.org/2000/svg">

<!--
<json>
{
    "imgurl": "",
    "imgw": 4.743971328437736,
    "imgleft": -2.2873205904167726,
    "imgtop": -3.171985664218851,
    "imgangle": 0,
    "svgwidth": 300,
    "svgheight": 300,
    "unit": 100,
    "x0": 684,
    "y0": 399,
    "x0rel": 0,
    "y0rel": 0,
    "glyph": "0336,0330,0332,0336,0336,0336,0332,0332,0331,0337,0337,0331,0333,0337,0337,0210,0210,0255,",
    "table": []
}
</json>
-->
    <line x1="113" y1="131" x2="151" y2="131" style="stroke:black;stroke-width:10"/>
  <path d="M102.95084971874738 102.60254915624212           A19.09830056250526 19.09830056250526 0 0 1 122.04915028125264 121.70084971874738" fill="none" stroke="black" stroke-width="10"/>
  <path d="M122.04915028125264 140.79915028125265           A19.09830056250526 19.09830056250526 0 0 1 102.95084971874738 159.8974508437579" fill="none" stroke="black" stroke-width="10"/>
    <line x1="103" y1="160" x2="84" y2="160" style="stroke:black;stroke-width:10"/>
    <line x1="84" y1="160" x2="65" y2="160" style="stroke:black;stroke-width:10"/>
  <path d="M64.75424859373686 159.8974508437579           A19.09830056250526 19.09830056250526 0 0 1 45.6559480312316 140.79915028125265" fill="none" stroke="black" stroke-width="10"/>
    <line x1="46" y1="141" x2="46" y2="122" style="stroke:black;stroke-width:10"/>
  <path d="M45.6559480312316 121.70084971874739           A19.09830056250526 19.09830056250526 0 0 1 64.75424859373686 102.60254915624213" fill="none" stroke="black" stroke-width="10"/>
    <line x1="65" y1="103" x2="84" y2="103" style="stroke:black;stroke-width:10"/>
    <line x1="84" y1="103" x2="103" y2="103" style="stroke:black;stroke-width:10"/>
    <line x1="151" y1="131" x2="189" y2="131" style="stroke:black;stroke-width:10"/>
  <path d="M179.34405196876838 121.7008497187474           A19.09830056250526 19.09830056250526 0 0 1 198.44235253127366 102.60254915624215" fill="none" stroke="black" stroke-width="10"/>
    <line x1="198" y1="103" x2="218" y2="103" style="stroke:black;stroke-width:10"/>
    <line x1="218" y1="103" x2="237" y2="103" style="stroke:black;stroke-width:10"/>
  <path d="M236.63895365628417 102.60254915624215           A19.09830056250526 19.09830056250526 0 0 1 255.73725421878942 121.7008497187474" fill="none" stroke="black" stroke-width="10"/>
    <line x1="256" y1="122" x2="256" y2="141" style="stroke:black;stroke-width:10"/>
  <path d="M255.73725421878942 140.79915028125262           A19.09830056250526 19.09830056250526 0 0 1 236.6389536562842 159.8974508437579" fill="none" stroke="black" stroke-width="10"/>
    <line x1="237" y1="160" x2="218" y2="160" style="stroke:black;stroke-width:10"/>
    <line x1="218" y1="160" x2="198" y2="160" style="stroke:black;stroke-width:10"/>
  <path d="M198.44235253127374 159.8974508437579           A19.09830056250526 19.09830056250526 0 0 1 179.34405196876844 140.79915028125265" fill="none" stroke="black" stroke-width="10"/>
	<path d="M151 93 L141 93 L146 101 L151 110 L155 101 L160 93 L151 93 Z" stroke="black" stroke-width="10" fill="black"/>	<path d="M151 150 L141 150 L146 159 L151 167 L155 159 L160 150 L151 150 Z" stroke="black" stroke-width="10" fill="black"/>	<path d="M151 189 L141 189 L146 197 L151 205 L155 197 L160 189 L151 189 Z" stroke="black" stroke-width="10" fill="black"/>	<path d="M151 55 L141 55 L146 63 L151 71 L155 63 L160 55 L151 55 Z" stroke="black" stroke-width="10" fill="black"/>	<path d="M34 208 L34 149 L34 91 M33.97817412475847 90.92477524976857           A58.35921350012619 58.35921350012619 0 0 1 92.33738762488473 32.56556174964241L151 33 L209 33 M209.0558146251371 32.56556174964254           A58.35921350012619 58.35921350012619 0 0 1 267.41502812526323 90.9247752497688L267 149 L267 208 M267.4150281252631 207.6432022500212           A58.35921350012619 58.35921350012619 0 0 1 209.05581462513686 266.00241575014735L151 266 L92 266 M92.33738762488447 266.00241575014724           A58.35921350012619 58.35921350012619 0 0 1 33.97817412475834 207.64320225002098" stroke="black" stroke-width="10" fill="none"/></svg>