<svg width="176" height="217" viewbox="0 0 176 217" xmlns="http://www.w3.org/2000/svg">

<!--
<json>
{
    "svgwidth": 176,
    "svgheight": 217,
    "unit": 100,
    "x0": 607.5,
    "y0": 385,
    "x0rel": -8,
    "y0rel": 26,
    "glyph": "0321,0336,0336,0120,0116,0107,0332,0365,0330,0333,0320,0330,0330,0332,0336,0336,0332,0337,0333,0337,0337,0335,0350,0310,0362,0203,0335,0335,0335,0336,0203,0335,0335,0203,0363,0335,0337,0331,0331,0335,0335,0362,0203,0335,0335,0335,0336,0203,0335,0335,0203,0363,0335,0337,0304,0313,0337,0336,0332,0337,0321,0336,0362,0203,0203,0364,0333,0350,0334,0343,0335,0330,0335,0335,0201,0334,0334,0331,0335,0343,0335,0330,0335,0335,0362,0203,0203,0364,0335,0333,0334,0334,0343,0335,0330,0335,0335,0201,0335,0333,0334,0334,0343,0335,0335,",
    "table": [
        "0220:0341,0333,0336,0341,",
        "0244:0243,0243,0243,0243,",
        "01220:0333,0200,0336,0332,0341,0333,0337,",
        "01221:0333,0200,",
        "01222:0333,0200,",
        "01223:0333,0200,",
        "01224:0333,0200,",
        "01225:0333,0200,",
        "01226:0333,0200,",
        "01227:0333,0200,",
        "01230:0333,0200,",
        "01231:0333,0200,",
        "01232:0333,0200,",
        "01233:0333,0200,",
        "01234:0333,0200,",
        "01235:0333,0200,",
        "01236:0333,0200,",
        "01237:0333,0200,",
        "01240:0333,0200,",
        "01241:0333,0200,",
        "01242:0333,0200,",
        "01243:0333,0200,",
        "01244:0333,0200,",
        "01245:0333,0200,",
        "01246:0333,0200,",
        "01247:0333,0200,"
    ],
    "imgurl": "",
    "imgx": -1.2312396694214882,
    "imgy": -0.43462809917355394,
    "imgw": 2.49,
    "angle": 0
}
</json>
-->
    <text x="55" y="135" fill="black" font-size="25px" font-family="arial">PNG</text>
	<path d="M61 60 L111 60 L86 85 L61 60 Z" stroke="black" stroke-width="1" fill="black"/>	<path d="M61 160 L111 160 L86 185 L61 160 Z" stroke="black" stroke-width="1" fill="black"/>	<path d="M11 159 L11 109 L11 59 " stroke="black" stroke-width="5" fill="none"/>  <path d="M11.250000000000185 59.500000000000064           A49.99999999999999 49.99999999999999 0 0 1 61.25000000000024 9.50000000000005" fill="none" stroke="black" stroke-width="5"/>
    <line x1="61" y1="10" x2="111" y2="10" style="stroke:black;stroke-width:5"/>
  <path d="M111.25000000000023 9.500000000000206           A49.99999999999999 49.99999999999999 0 0 1 161.25000000000014 59.500000000000355" fill="none" stroke="black" stroke-width="5"/>
	<path d="M161 60 L161 110 L161 160 " stroke="black" stroke-width="5" fill="none"/>  <path d="M161.2499999999997 159.50000000000017           A49.99999999999999 49.99999999999999 0 0 1 111.24999999999945 209.50000000000003" fill="none" stroke="black" stroke-width="5"/>
    <line x1="111" y1="210" x2="61" y2="209" style="stroke:black;stroke-width:5"/>
  <path d="M61.24999999999962 209.49999999999972           A49.99999999999999 49.99999999999999 0 0 1 11.249999999999872 159.4999999999994" fill="none" stroke="black" stroke-width="5"/>
</svg>