<svg width="200" height="200" viewbox="0 0 200 200" xmlns="http://www.w3.org/2000/svg">

<!--
<json>
{
    "imgurl": "",
    "imgw": 4.743971328437736,
    "imgleft": -2.2873205904167726,
    "imgtop": -3.171985664218851,
    "imgangle": 0,
    "svgwidth": 200,
    "svgheight": 200,
    "unit": 82.64462809917354,
    "x0": 684,
    "y0": 449,
    "x0rel": 0,
    "y0rel": 50,
    "glyph": "0336,0336,0336,0330,0337,0337,0337,0254,",
    "table": []
}
</json>
-->
	<path d="M17 140 L17 98 L17 57 M17.355371900826462 57.02479338842976           A41.32231404958677 41.32231404958677 0 0 1 58.677685950413235 15.702479338842991L100 16 L141 16 M141.32231404958677 15.702479338842991           A41.32231404958677 41.32231404958677 0 0 1 182.64462809917353 57.024793388429764L183 98 L183 140 M182.64462809917353 139.6694214876033           A41.32231404958677 41.32231404958677 0 0 1 141.32231404958677 180.99173553719007L100 181 L59 181 M58.67768595041322 180.99173553719007           A41.32231404958677 41.32231404958677 0 0 1 17.355371900826448 139.6694214876033" stroke="black" stroke-width="10" fill="none"/>    <text x="48" y="119" fill="black" font-size="41.32231404958677px" font-family="arial">SVG</text>
	<path d="M100 36 L90 36 L95 45 L100 54 L105 45 L110 36 L100 36 Z" stroke="black" stroke-width="10" fill="black"/>	<path d="M100 140 L90 140 L95 149 L100 158 L105 149 L110 140 L100 140 Z" stroke="black" stroke-width="10" fill="black"/></svg>